<svg xmlns="http://www.w3.org/2000/svg" viewBox="0 0 200 200" width="256" height="256" fill="currentColor">
<path d="M 60 60 Q 50 36 80 36 Q 100 28 120 36 Q 150 36 140 60 Q 168 70 160 100 Q 170 130 140 138 Q 150 162 120 162 Q 100 170 80 162 Q 50 162 60 138 Q 30 130 40 100 Q 32 70 60 60 Z" fill="currentColor"></path>
        <path d="M 100 40 L 100 160" stroke="var(--mc-acid)" stroke-width="5"></path>
        <path d="M 70 70 Q 80 80 70 95 Q 80 105 70 120 Q 80 135 70 150" stroke="var(--mc-acid)" stroke-width="4" fill="none"></path>
        <path d="M 130 70 Q 120 80 130 95 Q 120 105 130 120 Q 120 135 130 150" stroke="var(--mc-acid)" stroke-width="4" fill="none"></path>
</svg>