<svg xmlns="http://www.w3.org/2000/svg" viewBox="0 0 200 200" width="256" height="256" fill="currentColor">
<polygon points="40,40 60,80 36,72" fill="currentColor"></polygon>
        <polygon points="160,40 140,80 164,72" fill="currentColor"></polygon>
        <path d="M 40 90 Q 40 60 100 60 Q 160 60 160 90 L 160 140 Q 130 170 100 170 Q 70 170 40 140 Z" fill="currentColor"></path>
        <polygon points="60,96 90,96 75,116" fill="var(--mc-acid)"></polygon>
        <polygon points="110,96 140,96 125,116" fill="var(--mc-acid)"></polygon>
        <path d="M 60 138 Q 100 130 140 138 L 130 152 L 124 144 L 116 152 L 108 144 L 100 152 L 92 144 L 84 152 L 76 144 L 70 152 Z" fill="var(--mc-acid)"></path>
</svg>