<svg xmlns="http://www.w3.org/2000/svg" viewBox="0 0 200 200" width="256" height="256" fill="currentColor">
<g stroke="currentColor" stroke-width="4" fill="none" stroke-linecap="round">
          <line x1="20" y1="20" x2="180" y2="20"></line>
          <line x1="20" y1="20" x2="20" y2="180"></line>
          <line x1="20" y1="20" x2="180" y2="180"></line>
          <line x1="20" y1="100" x2="180" y2="100"></line>
          <line x1="100" y1="20" x2="100" y2="180"></line>
          <path d="M 20 20 Q 60 60 100 20"></path>
          <path d="M 100 20 Q 140 60 180 20"></path>
          <path d="M 20 60 Q 70 80 100 60 Q 130 80 180 60"></path>
          <path d="M 20 100 Q 70 130 100 100 Q 130 130 180 100"></path>
          <path d="M 20 140 Q 70 160 100 140 Q 130 160 180 140"></path>
        </g>
</svg>